# xmcd
#
# Track frame offsets: 
#        150
#        28081
#        51568
#        67529
#        89808
#        119274
#        134915
#        153436
#        168169
#        183690
#        196354
#        212160
#        224866
#        243239
#        257128
#        274549
#        290915
#        303629
#
# Disc length: 4358 seconds
#
# Revision: 0
# Processed by: cddbd v1.5.2PL0 Copyright (c) Steve Scherf et al.
# Submitted via: ExactAudioCopy v0.99pb5
#
DISCID=28110412
DTITLE=Various Artist - Rock 70's The Decade [CD:10)
DYEAR=2000
DGENRE=Rock
TTITLE0=Deep Purple - Highway Star
TTITLE1=Bachman-Turner Overdrive - Hold Back the Water
TTITLE2=Steppenwolf - Born to Be Wild
TTITLE3=Led Zeppelin - Black Dog
TTITLE4=Slade - Keep on Rocking
TTITLE5=Gary Glitter - I Didn't Know I Loved You
TTITLE6=Ram Jam - Black Betty
TTITLE7=Robert Palmer - Bad Case of Loving You
TTITLE8=David Essex - Rock On
TTITLE9=Kiss - Rock and Roll All Nite
TTITLE10=Kansas - Carry On Wayward Son
TTITLE11=Motörhead - Ace of Spades
TTITLE12=UFO - Doctor Doctor
TTITLE13=Judas Priest - Take on the World
TTITLE14=Black Sabbath - Never Say Die
TTITLE15=The Gun - Race With the Devil
TTITLE16=Dr. Feelgood - Milk and Alcohol
TTITLE17=Thin Lizzy - The Rocker
EXTD=
EXTT0=
EXTT1=
EXTT2=
EXTT3=
EXTT4=
EXTT5=
EXTT6=
EXTT7=
EXTT8=
EXTT9=
EXTT10=
EXTT11=
EXTT12=
EXTT13=
EXTT14=
EXTT15=
EXTT16=
EXTT17=
PLAYORDER=
